name ./resultDataOpenSim/trcMotMarkerGrf/sub09/grf-13-03.mot
datacolumns 19
datarows 15
range 1.02000000 1.07600000
endheader

                time	     ground_force_vx	     ground_force_vy	     ground_force_vz	     ground_force_px	     ground_force_py	     ground_force_pz	   l_ground_force_vx	   l_ground_force_vy	   l_ground_force_vz	   l_ground_force_px	   l_ground_force_py	   l_ground_force_pz	     ground_torque_x	     ground_torque_y	     ground_torque_z	   l_ground_torque_x	   l_ground_torque_y	   l_ground_torque_z	
          1.02000000	          0.00000000	          0.00000000	          0.00000000	          0.00000000	          0.00000000	          0.00000000	         28.64529029	        460.49600366	          7.82415651	          0.07475137	         -0.05000100	         -0.00374629	          0.00000000	          0.00000000	          0.00000000	          0.00000000	         -2.15820251	          0.00000000	
          1.02400000	          0.00000000	          0.00000000	          0.00000000	          0.00000000	          0.00000000	          0.00000000	         32.83148369	        467.32213492	          7.73021401	          0.07534232	         -0.05000100	         -0.00330834	          0.00000000	          0.00000000	          0.00000000	          0.00000000	         -2.35614023	          0.00000000	
          1.02800000	          0.00000000	          0.00000000	          0.00000000	          0.00000000	          0.00000000	          0.00000000	         36.97602890	        475.04633834	          7.53603112	          0.07588521	         -0.05000100	         -0.00291167	          0.00000000	          0.00000000	          0.00000000	          0.00000000	         -2.56581543	          0.00000000	
          1.03200000	          0.00000000	          0.00000000	          0.00000000	          0.00000000	          0.00000000	          0.00000000	         41.05323274	        483.68044401	          7.24661402	          0.07637305	         -0.05000100	         -0.00254381	          0.00000000	          0.00000000	          0.00000000	          0.00000000	         -2.78333618	          0.00000000	
          1.03600000	          0.00000000	          0.00000000	          0.00000000	          0.00000000	          0.00000000	          0.00000000	         45.07443558	        493.14428368	          6.88804656	          0.07683656	         -0.05000100	         -0.00218489	          0.00000000	          0.00000000	          0.00000000	          0.00000000	         -3.00308900	          0.00000000	
          1.04000000	          0.00000000	          0.00000000	          0.00000000	          0.00000000	          0.00000000	          0.00000000	         49.07769263	        503.26288525	          6.51945909	          0.07730730	         -0.05000100	         -0.00183077	          0.00000000	          0.00000000	          0.00000000	          0.00000000	         -3.21835375	          0.00000000	
          1.04400000	          0.00000000	          0.00000000	          0.00000000	          0.00000000	          0.00000000	          0.00000000	         53.10002963	        513.86112627	          6.22425323	          0.07777525	         -0.05000100	         -0.00149646	          0.00000000	          0.00000000	          0.00000000	          0.00000000	         -3.42236350	          0.00000000	
          1.04800000	          0.00000000	          0.00000000	          0.00000000	          0.00000000	          0.00000000	          0.00000000	         57.15360752	        524.84816235	          6.08304069	          0.07820301	         -0.05000100	         -0.00120125	          0.00000000	          0.00000000	          0.00000000	          0.00000000	         -3.60961877	          0.00000000	
          1.05200000	          0.00000000	          0.00000000	          0.00000000	          0.00000000	          0.00000000	          0.00000000	         61.22960533	        536.21273184	          6.14043848	          0.07858654	         -0.05000148	         -0.00094610	          0.00000000	          0.00000000	          0.00000000	          0.00000000	         -3.77704881	          0.00000000	
          1.05600000	          0.00000000	          0.00000000	          0.00000000	          0.00000000	          0.00000000	          0.00000000	         65.32001735	        547.95170675	          6.38500161	          0.07898151	         -0.05000200	         -0.00070057	          0.00000000	          0.00000000	          0.00000000	          0.00000000	         -3.92455623	          0.00000000	
          1.06000000	          0.00000000	          0.00000000	          0.00000000	          0.00000000	          0.00000000	          0.00000000	         69.43290239	        560.00094456	          6.75902494	          0.07945230	         -0.05000200	         -0.00042477	          0.00000000	          0.00000000	          0.00000000	          0.00000000	         -4.05465427	          0.00000000	
          1.06400000	          0.00000000	          0.00000000	          0.00000000	          0.00000000	          0.00000000	          0.00000000	         73.59415328	        572.23341411	          7.19499779	          0.08000462	         -0.05000200	         -0.00010594	          0.00000000	          0.00000000	          0.00000000	          0.00000000	         -4.17127320	          0.00000000	
          1.06800000	          0.00000000	          0.00000000	          0.00000000	          0.00000000	          0.00000000	          0.00000000	         77.84226980	        584.51366753	          7.65061791	          0.08058388	         -0.05000200	          0.00023633	          0.00000000	          0.00000000	          0.00000000	          0.00000000	         -4.27820854	          0.00000000	
          1.07200000	          0.00000000	          0.00000000	          0.00000000	          0.00000000	          0.00000000	          0.00000000	         82.22500078	        596.73479444	          8.11944865	          0.08112732	         -0.05000200	          0.00057095	          0.00000000	          0.00000000	          0.00000000	          0.00000000	         -4.37786109	          0.00000000	
          1.07600000	          0.00000000	          0.00000000	          0.00000000	          0.00000000	          0.00000000	          0.00000000	         86.78964618	        608.81365871	          8.61939825	          0.08160949	         -0.05000200	          0.00087893	          0.00000000	          0.00000000	          0.00000000	          0.00000000	         -4.47076060	          0.00000000	
